<svg width="128" height="26" viewBox="0 0 128 26" fill="none" xmlns="http://www.w3.org/2000/svg">
  <path d="M31.944 18H30.344V6.8H31.944V18ZM42.5133 18C42.5133 17.296 42.3746 16.624 42.0972 15.984C41.8306 15.3333 41.4679 14.7307 41.0093 14.176C40.5506 13.6213 40.0386 13.12 39.4733 12.672C38.9079 12.224 38.3266 11.8507 37.7293 11.552C37.1426 11.2533 36.5773 11.04 36.0333 10.912V18H34.4333V9.2H35.2973V9.216C35.8733 9.248 36.4813 9.376 37.1213 9.6C37.7719 9.81333 38.4226 10.112 39.0733 10.496C39.7239 10.88 40.3426 11.328 40.9293 11.84C41.5266 12.352 42.0546 12.9227 42.5133 13.552V9.2H44.1133V18H42.5133ZM55.6176 10.784H48.0336V18H46.4176V9.168H55.6176V10.784ZM54.5776 14.352H48.7856V12.736H54.5776V14.352ZM67.2544 13.584C67.2544 14.3947 67.0837 15.136 66.7424 15.808C66.4117 16.4693 65.9424 17.0027 65.3344 17.408C64.7264 17.8027 64.017 18 63.2064 18H60.4224C59.6117 18 58.897 17.8027 58.2784 17.408C57.6704 17.0027 57.1957 16.4693 56.8544 15.808C56.5237 15.136 56.3584 14.3947 56.3584 13.584C56.3584 12.7733 56.5237 12.0373 56.8544 11.376C57.1957 10.7147 57.6704 10.1867 58.2784 9.792C58.897 9.39733 59.6117 9.2 60.4224 9.2H63.2064C64.017 9.2 64.7264 9.39733 65.3344 9.792C65.9424 10.1867 66.4117 10.7147 66.7424 11.376C67.0837 12.0373 67.2544 12.7733 67.2544 13.584ZM65.6544 13.584C65.6544 13.072 65.5584 12.6027 65.3664 12.176C65.1744 11.7493 64.8917 11.4133 64.5184 11.168C64.1557 10.912 63.7184 10.784 63.2064 10.784H60.4224C59.9104 10.784 59.4677 10.912 59.0944 11.168C58.7317 11.4133 58.449 11.7493 58.2464 12.176C58.0544 12.6027 57.9584 13.072 57.9584 13.584C57.9584 14.096 58.0544 14.5653 58.2464 14.992C58.449 15.4187 58.7317 15.76 59.0944 16.016C59.4677 16.272 59.9104 16.4 60.4224 16.4H63.2064C63.7184 16.4 64.1557 16.272 64.5184 16.016C64.8917 15.76 65.1744 15.4187 65.3664 14.992C65.5584 14.5653 65.6544 14.096 65.6544 13.584ZM80.947 18H73.731C72.9523 18 72.2483 17.856 71.619 17.568C70.9897 17.28 70.4457 16.88 69.987 16.368C69.539 15.856 69.1923 15.264 68.947 14.592C68.7017 13.9093 68.579 13.1787 68.579 12.4C68.579 11.632 68.7017 10.912 68.947 10.24C69.1923 9.55733 69.539 8.96 69.987 8.448C70.4457 7.92533 70.9897 7.52 71.619 7.232C72.2483 6.944 72.9523 6.8 73.731 6.8H80.947V8.4H73.731C72.995 8.4 72.3603 8.58133 71.827 8.944C71.3043 9.296 70.899 9.776 70.611 10.384C70.323 10.992 70.179 11.664 70.179 12.4C70.179 13.136 70.323 13.808 70.611 14.416C70.899 15.0133 71.3043 15.4933 71.827 15.856C72.3603 16.2187 72.995 16.4 73.731 16.4H80.947V18ZM91.0993 18H82.6833V9.2H84.2833V16.4H91.0993V18ZM102.692 13.584C102.692 14.3947 102.521 15.136 102.18 15.808C101.849 16.4693 101.38 17.0027 100.772 17.408C100.164 17.8027 99.4545 18 98.6439 18H95.8599C95.0492 18 94.3345 17.8027 93.7159 17.408C93.1079 17.0027 92.6332 16.4693 92.2919 15.808C91.9612 15.136 91.7959 14.3947 91.7959 13.584C91.7959 12.7733 91.9612 12.0373 92.2919 11.376C92.6332 10.7147 93.1079 10.1867 93.7159 9.792C94.3345 9.39733 95.0492 9.2 95.8599 9.2H98.6439C99.4545 9.2 100.164 9.39733 100.772 9.792C101.38 10.1867 101.849 10.7147 102.18 11.376C102.521 12.0373 102.692 12.7733 102.692 13.584ZM101.092 13.584C101.092 13.072 100.996 12.6027 100.804 12.176C100.612 11.7493 100.329 11.4133 99.9559 11.168C99.5932 10.912 99.1559 10.784 98.6439 10.784H95.8599C95.3479 10.784 94.9052 10.912 94.5319 11.168C94.1692 11.4133 93.8865 11.7493 93.6839 12.176C93.4919 12.6027 93.3959 13.072 93.3959 13.584C93.3959 14.096 93.4919 14.5653 93.6839 14.992C93.8865 15.4187 94.1692 15.76 94.5319 16.016C94.9052 16.272 95.3479 16.4 95.8599 16.4H98.6439C99.1559 16.4 99.5932 16.272 99.9559 16.016C100.329 15.76 100.612 15.4187 100.804 14.992C100.996 14.5653 101.092 14.096 101.092 13.584ZM113.969 9.2V13.6C113.969 14.208 113.851 14.7787 113.617 15.312C113.393 15.8453 113.078 16.3147 112.673 16.72C112.278 17.1147 111.814 17.4293 111.281 17.664C110.758 17.888 110.193 18 109.585 18H108.705C108.097 18 107.526 17.888 106.993 17.664C106.47 17.4293 106.006 17.1093 105.601 16.704C105.206 16.2987 104.891 15.8347 104.657 15.312C104.433 14.7787 104.321 14.208 104.321 13.6V9.2H105.921V13.6C105.921 14.112 106.043 14.5813 106.289 15.008C106.545 15.4347 106.881 15.776 107.297 16.032C107.723 16.2773 108.193 16.4 108.705 16.4H109.585C110.107 16.4 110.577 16.2773 110.993 16.032C111.409 15.776 111.739 15.4347 111.985 15.008C112.241 14.5813 112.369 14.112 112.369 13.6V9.2H113.969ZM126.553 13.568C126.553 14.3893 126.382 15.136 126.041 15.808C125.699 16.48 125.219 17.0133 124.601 17.408C123.982 17.8027 123.262 18 122.441 18H118.505V16.384H122.441C122.963 16.384 123.406 16.2613 123.769 16.016C124.142 15.76 124.43 15.4187 124.633 14.992C124.835 14.5653 124.937 14.0907 124.937 13.568C124.937 13.0453 124.835 12.576 124.633 12.16C124.43 11.744 124.142 11.4133 123.769 11.168C123.406 10.912 122.963 10.784 122.441 10.784H117.753V18H116.121V9.168H122.441C123.262 9.168 123.982 9.36533 124.601 9.76C125.219 10.1547 125.699 10.6827 126.041 11.344C126.382 12.0053 126.553 12.7467 126.553 13.568Z" fill="#9747FF"/>
  <path d="M19.0938 14.9744H5.66146C4.62843 14.9487 3.64142 14.5248 2.89203 13.7849C2.14265 13.045 1.68437 12.0418 1.60616 10.9703C1.52795 9.89868 1.83539 8.83511 2.4688 7.98603C3.10221 7.13695 4.01638 6.56293 5.03385 6.37542C5.03385 6.2725 5.03385 6.17229 5.03385 6.07208C5.03629 4.92223 5.38312 3.80172 6.02613 2.86632C6.66915 1.93092 7.5764 1.2271 8.62178 0.85269C9.66716 0.478278 10.7987 0.451878 11.8592 0.777158C12.9197 1.10244 13.8564 1.76324 14.5391 2.66771C14.9779 2.51769 15.4365 2.44001 15.8984 2.4375C17.8776 2.4375 19.7917 4.19792 19.9531 6.11271C22.112 6.58125 23.4948 8.24146 23.4948 10.3946C23.4934 11.6083 23.0294 12.772 22.2044 13.6304C21.3794 14.4889 20.2608 14.9722 19.0938 14.9744ZM10.3464 1.08333C9.67414 1.08256 9.00928 1.22881 8.39494 1.51259C7.7806 1.79637 7.2305 2.21135 6.78037 2.73057C6.33023 3.24979 5.99011 3.86165 5.7821 4.52644C5.57408 5.19123 5.50281 5.89408 5.57292 6.58938C5.5759 6.62481 5.57215 6.6605 5.56188 6.69442C5.5516 6.72835 5.535 6.75983 5.51302 6.78708C5.49116 6.81469 5.46425 6.83752 5.43386 6.85426C5.40346 6.87099 5.37018 6.8813 5.33594 6.88458C4.43055 7.00787 3.6026 7.48001 3.01583 8.20763C2.42906 8.93524 2.12618 9.86536 2.1671 10.814C2.20801 11.7627 2.58973 12.6609 3.23678 13.331C3.88383 14.0011 4.74909 14.3942 5.66146 14.4327H19.0938C20.1227 14.4306 21.1088 14.0043 21.8361 13.2474C22.5634 12.4905 22.9726 11.4647 22.974 10.3946C22.974 8.45271 21.6719 6.96313 19.6589 6.60292C19.5977 6.59195 19.5423 6.55865 19.5027 6.50899C19.4631 6.45934 19.4418 6.3966 19.4427 6.33208C19.4167 4.79104 17.862 2.97917 15.8984 2.97917C15.4324 2.98289 14.9709 3.07466 14.5365 3.25C14.4831 3.27076 14.4246 3.27273 14.37 3.2556C14.3155 3.23848 14.2678 3.20321 14.2344 3.15521C13.7899 2.51489 13.2057 1.99327 12.5299 1.63312C11.854 1.27297 11.1057 1.08456 10.3464 1.08333Z" fill="#9747FF"/>
  <path d="M6.92708 6.34292C6.85802 6.34292 6.79178 6.31438 6.74294 6.26359C6.6941 6.2128 6.66667 6.14391 6.66667 6.07208C6.66805 5.05782 7.05625 4.08555 7.7461 3.36862C8.43596 2.65168 9.3711 2.24863 10.3464 2.24792C10.4154 2.24792 10.4817 2.27645 10.5305 2.32724C10.5793 2.37803 10.6068 2.44692 10.6068 2.51875C10.6068 2.59058 10.5793 2.65947 10.5305 2.71026C10.4817 2.76105 10.4154 2.78958 10.3464 2.78958C9.50945 2.79101 8.70717 3.13722 8.11515 3.75242C7.52312 4.36762 7.18957 5.2017 7.1875 6.07208C7.1875 6.14391 7.16006 6.2128 7.11123 6.26359C7.06239 6.31438 6.99615 6.34292 6.92708 6.34292Z" fill="#9747FF"/>
  <path d="M8.36719 19.7031H4.60417C4.5351 19.7031 4.46886 19.6746 4.42002 19.6238C4.37119 19.573 4.34375 19.5041 4.34375 19.4323C4.34375 19.3605 4.37119 19.2916 4.42002 19.2408C4.46886 19.19 4.5351 19.1615 4.60417 19.1615H8.10677V14.7035C8.10677 14.6317 8.13421 14.5628 8.18305 14.512C8.23188 14.4612 8.29812 14.4327 8.36719 14.4327C8.43625 14.4327 8.50249 14.4612 8.55133 14.512C8.60017 14.5628 8.6276 14.6317 8.6276 14.7035V19.4323C8.6276 19.5041 8.60017 19.573 8.55133 19.6238C8.50249 19.6746 8.43625 19.7031 8.36719 19.7031Z" fill="#9747FF"/>
  <path d="M11.2266 23.1942C11.1575 23.1942 11.0913 23.1656 11.0424 23.1148C10.9936 23.064 10.9661 22.9952 10.9661 22.9233V14.7035C10.9661 14.6317 10.9936 14.5628 11.0424 14.512C11.0913 14.4612 11.1575 14.4327 11.2266 14.4327C11.2956 14.4327 11.3619 14.4612 11.4107 14.512C11.4595 14.5628 11.487 14.6317 11.487 14.7035V22.9233C11.487 22.9952 11.4595 23.064 11.4107 23.1148C11.3619 23.1656 11.2956 23.1942 11.2266 23.1942Z" fill="#9747FF"/>
  <path d="M17.4479 21.9023H14.4896C14.4205 21.9023 14.3543 21.8738 14.3054 21.823C14.2566 21.7722 14.2292 21.7033 14.2292 21.6315V14.7035C14.2292 14.6317 14.2566 14.5628 14.3054 14.512C14.3543 14.4612 14.4205 14.4327 14.4896 14.4327C14.5586 14.4327 14.6249 14.4612 14.6737 14.512C14.7226 14.5628 14.75 14.6317 14.75 14.7035V21.3606H17.4479C17.517 21.3606 17.5832 21.3892 17.6321 21.44C17.6809 21.4907 17.7083 21.5596 17.7083 21.6315C17.7083 21.7033 17.6809 21.7722 17.6321 21.823C17.5832 21.8738 17.517 21.9023 17.4479 21.9023Z" fill="#9747FF"/>
  <path d="M20.3958 19.0829H17.5677C17.4986 19.0829 17.4324 19.0544 17.3836 19.0036C17.3347 18.9528 17.3073 18.8839 17.3073 18.8121V14.7035C17.3073 14.6317 17.3347 14.5628 17.3836 14.512C17.4324 14.4612 17.4986 14.4327 17.5677 14.4327C17.6368 14.4327 17.703 14.4612 17.7518 14.512C17.8007 14.5628 17.8281 14.6317 17.8281 14.7035V18.5413H20.3958C20.4649 18.5413 20.5311 18.5698 20.58 18.6206C20.6288 18.6714 20.6562 18.7403 20.6562 18.8121C20.6562 18.8839 20.6288 18.9528 20.58 19.0036C20.5311 19.0544 20.4649 19.0829 20.3958 19.0829Z" fill="#9747FF"/>
  <path d="M3.51562 20.8352C3.24882 20.8352 2.98802 20.7529 2.76618 20.5988C2.54435 20.4446 2.37145 20.2255 2.26935 19.9692C2.16725 19.7128 2.14053 19.4307 2.19258 19.1586C2.24463 18.8865 2.37311 18.6365 2.56177 18.4403C2.75042 18.2441 2.99078 18.1105 3.25245 18.0563C3.51413 18.0022 3.78536 18.03 4.03185 18.1362C4.27834 18.2423 4.48902 18.4222 4.63724 18.6529C4.78547 18.8836 4.86458 19.1548 4.86458 19.4323C4.86458 19.8044 4.72246 20.1612 4.46948 20.4243C4.2165 20.6874 3.87339 20.8352 3.51562 20.8352ZM3.51562 18.571C3.35184 18.571 3.19173 18.6216 3.05554 18.7162C2.91936 18.8108 2.81321 18.9453 2.75054 19.1027C2.68786 19.2601 2.67146 19.4332 2.70341 19.6003C2.73536 19.7674 2.81423 19.9208 2.93005 20.0413C3.04587 20.1617 3.19342 20.2438 3.35406 20.277C3.5147 20.3102 3.68121 20.2932 3.83253 20.228C3.98385 20.1628 4.11319 20.0524 4.20418 19.9108C4.29518 19.7691 4.34375 19.6026 4.34375 19.4323C4.34306 19.2041 4.25559 18.9854 4.10044 18.8241C3.94528 18.6627 3.73504 18.5718 3.51562 18.571Z" fill="#9747FF"/>
  <path d="M11.2266 25.4583C10.9597 25.4589 10.6986 25.377 10.4764 25.2232C10.2542 25.0694 10.0809 24.8505 9.97843 24.5942C9.87593 24.3379 9.84885 24.0557 9.9006 23.7834C9.95236 23.5111 10.0806 23.2608 10.2692 23.0644C10.4577 22.8679 10.6981 22.734 10.9598 22.6797C11.2216 22.6253 11.4929 22.6529 11.7396 22.759C11.9862 22.8651 12.1971 23.045 12.3454 23.2757C12.4937 23.5065 12.5729 23.7778 12.5729 24.0554C12.5729 24.427 12.4312 24.7835 12.1787 25.0465C11.9263 25.3095 11.5839 25.4576 11.2266 25.4583ZM11.2266 23.1942C11.0627 23.1936 10.9023 23.2437 10.7658 23.338C10.6292 23.4323 10.5227 23.5666 10.4596 23.724C10.3965 23.8813 10.3798 24.0545 10.4114 24.2218C10.4431 24.389 10.5218 24.5427 10.6375 24.6635C10.7532 24.7842 10.9007 24.8665 11.0614 24.8999C11.2222 24.9334 11.3888 24.9165 11.5403 24.8514C11.6917 24.7863 11.8212 24.6759 11.9123 24.5342C12.0034 24.3925 12.0521 24.2259 12.0521 24.0554C12.0521 23.8275 11.9652 23.6088 11.8105 23.4474C11.6557 23.2859 11.4457 23.1949 11.2266 23.1942Z" fill="#9747FF"/>
  <path d="M18.5312 23.0344C18.2645 23.0344 18.0036 22.9521 17.7818 22.7979C17.56 22.6438 17.3871 22.4247 17.285 22.1683C17.1829 21.912 17.1562 21.6299 17.2082 21.3578C17.2603 21.0856 17.3887 20.8356 17.5774 20.6394C17.766 20.4432 18.0064 20.3096 18.2681 20.2555C18.5298 20.2014 18.801 20.2291 19.0475 20.3353C19.294 20.4415 19.5046 20.6213 19.6529 20.852C19.8011 21.0827 19.8802 21.354 19.8802 21.6315C19.8795 22.0033 19.7372 22.3597 19.4843 22.6227C19.2315 22.8856 18.8888 23.0337 18.5312 23.0344ZM18.5312 20.7702C18.3675 20.7702 18.2074 20.8207 18.0712 20.9154C17.935 21.01 17.8288 21.1445 17.7662 21.3019C17.7035 21.4592 17.6871 21.6324 17.719 21.7995C17.751 21.9665 17.8299 22.12 17.9457 22.2405C18.0615 22.3609 18.209 22.4429 18.3697 22.4762C18.5303 22.5094 18.6968 22.4923 18.8482 22.4272C18.9995 22.362 19.1288 22.2516 19.2198 22.1099C19.3108 21.9683 19.3594 21.8018 19.3594 21.6315C19.3587 21.4033 19.2712 21.1846 19.1161 21.0233C18.9609 20.8619 18.7507 20.7709 18.5312 20.7702Z" fill="#9747FF"/>
  <path d="M21.4844 20.215C21.2176 20.215 20.9568 20.1327 20.7349 19.9786C20.5131 19.8244 20.3402 19.6053 20.2381 19.349C20.136 19.0926 20.1093 18.8105 20.1613 18.5384C20.2134 18.2662 20.3419 18.0163 20.5305 17.8201C20.7192 17.6239 20.9595 17.4903 21.2212 17.4361C21.4829 17.382 21.7541 17.4098 22.0006 17.516C22.2471 17.6221 22.4578 17.802 22.606 18.0327C22.7542 18.2634 22.8333 18.5346 22.8333 18.8121C22.8333 18.9963 22.7984 19.1787 22.7306 19.349C22.6629 19.5192 22.5635 19.6738 22.4382 19.8041C22.313 19.9344 22.1643 20.0377 22.0006 20.1082C21.8369 20.1787 21.6615 20.215 21.4844 20.215ZM21.4844 17.9535C21.3205 17.9535 21.1603 18.0041 21.024 18.0989C20.8878 18.1936 20.7816 18.3283 20.719 18.4858C20.6564 18.6434 20.6402 18.8167 20.6724 18.9838C20.7045 19.151 20.7837 19.3044 20.8997 19.4247C21.0158 19.5451 21.1636 19.6269 21.3244 19.6598C21.4852 19.6927 21.6518 19.6753 21.8031 19.6097C21.9544 19.5441 22.0835 19.4333 22.1742 19.2913C22.2649 19.1493 22.313 18.9825 22.3125 18.8121C22.3118 18.5841 22.2243 18.3658 22.069 18.2048C21.9138 18.0439 21.7036 17.9535 21.4844 17.9535Z" fill="#9747FF"/>
</svg>
