<svg width="14" height="14" viewBox="0 0 14 14" fill="none" xmlns="http://www.w3.org/2000/svg">
<mask id="mask0_2878_1186" style="mask-type:alpha" maskUnits="userSpaceOnUse" x="0" y="0" width="14" height="14">
<rect width="14" height="14" fill="#D9D9D9"/>
</mask>
<g mask="url(#mask0_2878_1186)">
<path d="M6.41675 7.58341H3.50008C3.3348 7.58341 3.19626 7.52751 3.08446 7.41571C2.97265 7.3039 2.91675 7.16536 2.91675 7.00008C2.91675 6.8348 2.97265 6.69626 3.08446 6.58446C3.19626 6.47265 3.3348 6.41675 3.50008 6.41675H6.41675V3.50008C6.41675 3.3348 6.47265 3.19626 6.58446 3.08446C6.69626 2.97265 6.8348 2.91675 7.00008 2.91675C7.16536 2.91675 7.3039 2.97265 7.41571 3.08446C7.52751 3.19626 7.58341 3.3348 7.58341 3.50008V6.41675H10.5001C10.6654 6.41675 10.8039 6.47265 10.9157 6.58446C11.0275 6.69626 11.0834 6.8348 11.0834 7.00008C11.0834 7.16536 11.0275 7.3039 10.9157 7.41571C10.8039 7.52751 10.6654 7.58341 10.5001 7.58341H7.58341V10.5001C7.58341 10.6654 7.52751 10.8039 7.41571 10.9157C7.3039 11.0275 7.16536 11.0834 7.00008 11.0834C6.8348 11.0834 6.69626 11.0275 6.58446 10.9157C6.47265 10.8039 6.41675 10.6654 6.41675 10.5001V7.58341Z" fill="white"/>
</g>
</svg>
