<svg width="10" height="10" viewBox="0 0 10 10" fill="none" xmlns="http://www.w3.org/2000/svg">
  <g clip-path="url(#clip0_3011_1715)">
    <path d="M7.08325 1.24996C7.19269 1.14053 7.32261 1.05372 7.46559 0.994494C7.60857 0.935268 7.76182 0.904785 7.91659 0.904785C8.07135 0.904785 8.2246 0.935268 8.36758 0.994494C8.51057 1.05372 8.64048 1.14053 8.74992 1.24996C8.85935 1.3594 8.94616 1.48932 9.00539 1.6323C9.06461 1.77528 9.0951 1.92853 9.0951 2.0833C9.0951 2.23806 9.06461 2.39131 9.00539 2.53429C8.94616 2.67728 8.85935 2.80719 8.74992 2.91663L3.12492 8.54163L0.833252 9.16663L1.45825 6.87496L7.08325 1.24996Z" stroke="#9747FF" stroke-linecap="round" stroke-linejoin="round"/>
  </g>
  <defs>
    <clipPath id="clip0_3011_1715">
      <rect width="10" height="10" fill="white"/>
    </clipPath>
  </defs>
</svg>
