<svg width="21" height="20" viewBox="0 0 21 20" fill="none" xmlns="http://www.w3.org/2000/svg">
  <mask id="mask0_2068_1394" style="mask-type:alpha" maskUnits="userSpaceOnUse" x="0" y="0" width="21" height="20">
    <rect x="0.64917" width="20" height="20" fill="#D9D9D9"/>
  </mask>
  <g mask="url(#mask0_2068_1394)">
    <path d="M10.6492 13.3333C11.6908 13.3333 12.5763 12.9688 13.3054 12.2396C14.0346 11.5104 14.3992 10.625 14.3992 9.58334C14.3992 8.54168 14.0346 7.65626 13.3054 6.92709C12.5763 6.19793 11.6908 5.83334 10.6492 5.83334C9.6075 5.83334 8.72209 6.19793 7.99292 6.92709C7.26375 7.65626 6.89917 8.54168 6.89917 9.58334C6.89917 10.625 7.26375 11.5104 7.99292 12.2396C8.72209 12.9688 9.6075 13.3333 10.6492 13.3333ZM10.6492 11.8333C10.0242 11.8333 9.49292 11.6146 9.05542 11.1771C8.61792 10.7396 8.39917 10.2083 8.39917 9.58334C8.39917 8.95834 8.61792 8.42709 9.05542 7.98959C9.49292 7.55209 10.0242 7.33334 10.6492 7.33334C11.2742 7.33334 11.8054 7.55209 12.2429 7.98959C12.6804 8.42709 12.8992 8.95834 12.8992 9.58334C12.8992 10.2083 12.6804 10.7396 12.2429 11.1771C11.8054 11.6146 11.2742 11.8333 10.6492 11.8333ZM10.6492 15.8333C8.78806 15.8333 7.09014 15.3333 5.55542 14.3333C4.0207 13.3333 2.80889 12.0139 1.92 10.375C1.85056 10.25 1.79848 10.1215 1.76375 9.98959C1.72903 9.85765 1.71167 9.72223 1.71167 9.58334C1.71167 9.44445 1.72903 9.30904 1.76375 9.17709C1.79848 9.04515 1.85056 8.91668 1.92 8.79168C2.80889 7.15279 4.0207 5.83334 5.55542 4.83334C7.09014 3.83334 8.78806 3.33334 10.6492 3.33334C12.5103 3.33334 14.2082 3.83334 15.7429 4.83334C17.2776 5.83334 18.4894 7.15279 19.3783 8.79168C19.4478 8.91668 19.4999 9.04515 19.5346 9.17709C19.5693 9.30904 19.5867 9.44445 19.5867 9.58334C19.5867 9.72223 19.5693 9.85765 19.5346 9.98959C19.4999 10.1215 19.4478 10.25 19.3783 10.375C18.4894 12.0139 17.2776 13.3333 15.7429 14.3333C14.2082 15.3333 12.5103 15.8333 10.6492 15.8333Z" fill="#1C1B1F"/>
  </g>
</svg>
