<svg width="21" height="20" viewBox="0 0 21 20" fill="none" xmlns="http://www.w3.org/2000/svg">
  <mask id="mask0_2068_1655" style="mask-type:alpha" maskUnits="userSpaceOnUse" x="0" y="0" width="21" height="20">
    <rect x="0.973877" width="20" height="20" fill="#D9D9D9"/>
  </mask>
  <g mask="url(#mask0_2068_1655)">
    <path d="M16.8905 18.25L13.9739 15.375C13.4878 15.5278 12.9947 15.6424 12.4947 15.7188C11.9947 15.7951 11.4878 15.8333 10.9739 15.8333C9.11277 15.8333 7.41138 15.3333 5.86971 14.3333C4.32804 13.3333 3.11971 12.0139 2.24471 10.375C2.17527 10.25 2.12318 10.1215 2.08846 9.98958C2.05374 9.85764 2.03638 9.72222 2.03638 9.58333C2.03638 9.44445 2.05374 9.30903 2.08846 9.17708C2.12318 9.04514 2.17527 8.91667 2.24471 8.79167C2.55027 8.25 2.87665 7.72222 3.22388 7.20833C3.5711 6.69444 3.97388 6.23611 4.43221 5.83333L2.70304 4.08333C2.55027 3.93056 2.47388 3.73958 2.47388 3.51042C2.47388 3.28125 2.55721 3.08333 2.72388 2.91667C2.87665 2.76389 3.0711 2.6875 3.30721 2.6875C3.54332 2.6875 3.73777 2.76389 3.89054 2.91667L18.0572 17.0833C18.21 17.2361 18.2899 17.4271 18.2968 17.6562C18.3037 17.8854 18.2239 18.0833 18.0572 18.25C17.9044 18.4028 17.71 18.4792 17.4739 18.4792C17.2378 18.4792 17.0433 18.4028 16.8905 18.25ZM10.9739 13.3333C11.1267 13.3333 11.2725 13.3264 11.4114 13.3125C11.5503 13.2986 11.6892 13.2708 11.828 13.2292L7.32804 8.72917C7.28638 8.86806 7.2586 9.00694 7.24471 9.14583C7.23082 9.28472 7.22388 9.43056 7.22388 9.58333C7.22388 10.625 7.58846 11.5104 8.31763 12.2396C9.04679 12.9688 9.93221 13.3333 10.9739 13.3333ZM10.9739 3.33333C12.835 3.33333 14.5399 3.83681 16.0885 4.84375C17.6371 5.85069 18.8489 7.17361 19.7239 8.8125C19.7933 8.92361 19.8454 9.04514 19.8801 9.17708C19.9149 9.30903 19.9322 9.44445 19.9322 9.58333C19.9322 9.72222 19.9183 9.85764 19.8905 9.98958C19.8628 10.1215 19.8142 10.2431 19.7447 10.3542C19.4808 10.8681 19.1857 11.3542 18.8593 11.8125C18.5329 12.2708 18.1683 12.7014 17.7655 13.1042C17.5711 13.2986 17.3419 13.3889 17.078 13.375C16.8142 13.3611 16.585 13.2569 16.3905 13.0625L14.7239 11.3958C14.6267 11.2986 14.5642 11.184 14.5364 11.0521C14.5086 10.9201 14.5155 10.7847 14.5572 10.6458C14.6128 10.4653 14.6544 10.2917 14.6822 10.125C14.71 9.95833 14.7239 9.77778 14.7239 9.58333C14.7239 8.54167 14.3593 7.65625 13.6301 6.92708C12.901 6.19792 12.0155 5.83333 10.9739 5.83333C10.7794 5.83333 10.5989 5.84722 10.4322 5.875C10.2655 5.90278 10.0919 5.94444 9.91138 6C9.77249 6.04167 9.6336 6.04861 9.49471 6.02083C9.35582 5.99306 9.23777 5.93056 9.14054 5.83333L8.45304 5.14583C8.18916 4.88194 8.10235 4.57639 8.19263 4.22917C8.28291 3.88194 8.50166 3.65972 8.84888 3.5625C9.1961 3.49306 9.54679 3.4375 9.90096 3.39583C10.2551 3.35417 10.6128 3.33333 10.9739 3.33333ZM12.6197 8.04167C12.7725 8.22222 12.901 8.42014 13.0051 8.63542C13.1093 8.8507 13.1753 9.07639 13.203 9.3125C13.2169 9.42361 13.1753 9.5 13.078 9.54167C12.9808 9.58333 12.8905 9.5625 12.8072 9.47917L11.0989 7.77083C11.0155 7.6875 10.9982 7.59722 11.0468 7.5C11.0954 7.40278 11.1753 7.35417 11.2864 7.35417C11.5503 7.38194 11.7933 7.45486 12.0155 7.57292C12.2378 7.69097 12.4392 7.84722 12.6197 8.04167Z" fill="#1C1B1F"/>
  </g>
</svg>
