<svg width="24" height="24" viewBox="0 0 24 24" fill="none" xmlns="http://www.w3.org/2000/svg">
  <path d="M12.3743 6.8715C10.323 6.8715 8.27253 6.63525 6.28203 6.16875C6.08028 6.1215 5.95503 5.9205 6.00228 5.718C6.04953 5.517 6.24603 5.39175 6.45378 5.43825C10.7985 6.45675 15.4163 6.3285 19.7123 5.06475C19.9148 5.00775 20.1203 5.1195 20.178 5.31825C20.2365 5.51775 20.1233 5.7255 19.9245 5.784C17.4713 6.5055 14.931 6.8715 12.3743 6.8715Z" fill="#263238"/>
  <path d="M19.8181 19.7715C19.7828 19.7715 19.7476 19.7662 19.7116 19.7557C14.9423 18.3525 9.80631 18.3525 5.03706 19.7557C4.83531 19.812 4.62906 19.701 4.57131 19.5023C4.51281 19.3028 4.62606 19.095 4.82481 19.0365C9.73356 17.592 15.0158 17.592 19.9246 19.0365C20.1233 19.095 20.2366 19.3028 20.1781 19.5023C20.1301 19.6665 19.9801 19.7715 19.8181 19.7715Z" fill="#263238"/>
  <path d="M11.916 22.9793C11.8425 22.9793 11.7697 22.9583 11.7045 22.914C8.20425 20.5253 6.11475 16.5975 6.11475 12.4073C6.11475 9.012 7.4505 5.81625 9.8775 3.40875C10.0252 3.261 10.263 3.264 10.4077 3.41025C10.554 3.55725 10.5525 3.795 10.4062 3.9405C8.1225 6.20625 6.86475 9.213 6.86475 12.4073C6.86475 16.3493 8.832 20.046 12.1282 22.2945C12.2992 22.4108 12.3427 22.6448 12.2265 22.8158C12.153 22.9223 12.0352 22.9793 11.916 22.9793Z" fill="#263238"/>
  <path d="M12.8647 22.9792C12.7455 22.9792 12.6277 22.9222 12.555 22.8157C12.4387 22.644 12.4822 22.4107 12.6532 22.2945C15.9495 20.046 17.9167 16.3492 17.9167 12.4072C17.9167 8.46525 15.9495 4.7685 12.6532 2.52C12.4822 2.40375 12.4387 2.16975 12.555 1.99875C12.672 1.82775 12.906 1.78575 13.0762 1.9005C16.5765 4.28925 18.666 8.217 18.666 12.4072C18.666 16.5975 16.5765 20.5252 13.0762 22.914C13.0117 22.9575 12.9382 22.9792 12.8647 22.9792Z" fill="#263238"/>
  <path d="M12.3743 22.8675C12.1673 22.8675 11.9993 22.6995 11.9993 22.4925V2.322C11.9993 2.115 12.1673 1.947 12.3743 1.947C12.5813 1.947 12.7493 2.115 12.7493 2.322V22.4925C12.7493 22.7002 12.5813 22.8675 12.3743 22.8675Z" fill="#263238"/>
  <path d="M22.8346 12.7822H3.41406C3.20706 12.7822 3.03906 12.6142 3.03906 12.4072C3.03906 12.2002 3.20706 12.0322 3.41406 12.0322H22.8353C23.0423 12.0322 23.2103 12.2002 23.2103 12.4072C23.2103 12.6142 23.0423 12.7822 22.8346 12.7822Z" fill="#263238"/>
  <path d="M12.3743 23.2822C6.37802 23.2822 1.49927 18.4035 1.49927 12.4072C1.49927 9.7665 2.45777 7.218 4.19927 5.2335C4.33577 5.0775 4.57202 5.0625 4.72877 5.199C4.88402 5.3355 4.89902 5.5725 4.76327 5.7285C3.14252 7.57575 2.24927 9.948 2.24927 12.4072C2.24927 17.9902 6.79127 22.5322 12.3743 22.5322C17.9573 22.5322 22.4993 17.9902 22.4993 12.4072C22.4993 6.82425 17.9573 2.28225 12.3743 2.28225C10.0658 2.28225 7.89227 3.03825 6.09002 4.4685C5.92802 4.5975 5.69252 4.57125 5.56352 4.40775C5.43452 4.24575 5.46152 4.01025 5.62427 3.88125C7.56002 2.3445 9.89402 1.53225 12.3743 1.53225C18.3705 1.53225 23.2493 6.411 23.2493 12.4072C23.2493 18.4035 18.3705 23.2822 12.3743 23.2822Z" fill="#263238"/>
</svg>
