<svg width="10" height="10" viewBox="0 0 10 10" fill="none" xmlns="http://www.w3.org/2000/svg">
  <g clip-path="url(#clip0_3011_1230)">
    <path d="M1.25 2.50004H2.08333M2.08333 2.50004H8.75M2.08333 2.50004V8.33337C2.08333 8.55439 2.17113 8.76635 2.32741 8.92263C2.48369 9.07891 2.69565 9.16671 2.91667 9.16671H7.08333C7.30435 9.16671 7.51631 9.07891 7.67259 8.92263C7.82887 8.76635 7.91667 8.55439 7.91667 8.33337V2.50004M3.33333 2.50004V1.66671C3.33333 1.44569 3.42113 1.23373 3.57741 1.07745C3.73369 0.921171 3.94565 0.833374 4.16667 0.833374H5.83333C6.05435 0.833374 6.26631 0.921171 6.42259 1.07745C6.57887 1.23373 6.66667 1.44569 6.66667 1.66671V2.50004M4.16667 4.58337V7.08337M5.83333 4.58337V7.08337" stroke="#E94335" stroke-linecap="round" stroke-linejoin="round"/>
  </g>
  <defs>
    <clipPath id="clip0_3011_1230">
      <rect width="10" height="10" fill="white"/>
    </clipPath>
  </defs>
</svg>
